<?xml version="1.0" standalone="no"?><!DOCTYPE svg PUBLIC "-//W3C//DTD SVG 1.1//EN" "http://www.w3.org/Graphics/SVG/1.1/DTD/svg11.dtd"><svg t="1504775085898" class="icon" style="" viewBox="0 0 1024 1024" version="1.1" xmlns="http://www.w3.org/2000/svg" p-id="15437" xmlns:xlink="http://www.w3.org/1999/xlink" width="200" height="200"><defs><style type="text/css"></style></defs><path d="M439.162921 16.546192l153.16725 0 0 104.798965-153.16725 0 0-104.798965Z" p-id="15438" fill="#f6ef37"></path><path d="M626.456819 209.377098l0-50.845048L405.036274 158.53205l0 50.048837c-174.46133 47.886102-302.655318 207.587143-302.655318 397.255491 0 227.507607 184.431186 411.938793 411.938793 411.938793s411.938793-184.431186 411.938793-411.938793C926.259555 417.205332 799.461469 258.214398 626.456819 209.377098zM627.516408 726.256674 401.124103 726.256674l0-50.140006L627.516408 676.116668 627.516408 726.256674zM642.496516 584.689182 386.142982 584.689182l0-93.512221 48.368285 0L434.511268 201.630757c-0.169169 0.033429-0.337326 0.071922-0.506495 0.105351l-7.470807 0 0-21.705354 178.425163 0 0 21.705354-9.218216 0 0 0.213741 0 21.28395 0 267.943162 46.756617 0L642.497529 584.689182z" p-id="15439" fill="#f6ef37"></path></svg>