<?xml version="1.0" standalone="no"?><!DOCTYPE svg PUBLIC "-//W3C//DTD SVG 1.1//EN" "http://www.w3.org/Graphics/SVG/1.1/DTD/svg11.dtd"><svg t="1504774687414" class="icon" style="" viewBox="0 0 1024 1024" version="1.1" xmlns="http://www.w3.org/2000/svg" p-id="1675" xmlns:xlink="http://www.w3.org/1999/xlink" width="200" height="200"><defs><style type="text/css"></style></defs><path d="M944.867732 603.37715 815.115576 473.624994c-5.65172-5.650697-13.514805-7.728008-20.800745-6.249331-0.760317-0.062422-1.526773-0.103354-2.305509-0.103354l-237.529835 0 0-44.081984 367.660614 0c0.275269 0 0.541329-0.028653 0.814552-0.036839 7.194866 1.353834 14.912641-0.748037 20.479427-6.315846 8.952906-8.958022 8.952906-23.477714 0-32.435737L827.937602 268.905426l115.497501-115.497501c8.952906-8.958022 8.952906-23.477714 0-32.435737-5.571902-5.574972-13.298887-7.677866-20.49887-6.315846-0.302899-0.010233-0.599657-0.040932-0.905626-0.040932l-367.55112 0L554.479487 92.574419c0-12.171204-9.865695-22.040992-22.040992-22.040992s-22.040992 9.869788-22.040992 22.040992l0 22.040992L227.196489 114.615411c-0.334621 0-0.660032 0.032746-0.991584 0.044002-7.207146-1.37123-14.94641 0.729617-20.525476 6.311753L75.928297 250.719228c-4.979408 4.981455-7.18054 11.680017-6.624884 18.186198-0.555655 6.506181 1.645476 13.202697 6.624884 18.182105l129.751133 129.751133c5.786797 5.786797 13.893428 7.81192 21.324678 6.121418 1.110287 0.1361 2.233877 0.231267 3.38612 0.231267l280.008298 0 0 44.081984L97.588619 467.273333c-7.123234-1.257643-14.72333 0.849344-20.2236 6.352685-8.962116 8.958022-8.962116 23.482831 0 32.43983L192.856379 621.560278 77.365019 737.055732c-8.962116 8.956999-8.962116 23.486924 0 32.43983 5.499248 5.502317 13.100366 7.610328 20.222577 6.352685l412.809907 0 0 154.287969c0 12.175297 9.865695 22.040992 22.040992 22.040992s22.040992-9.865695 22.040992-22.040992L554.479487 775.848247l240.412488 0c7.122211 1.257643 14.721283-0.850367 20.2236-6.352685l129.751133-129.751133c4.978385-4.978385 7.18054-11.676947 6.624884-18.184151C952.048271 615.054097 949.846116 608.355535 944.867732 603.37715zM122.621758 268.905426 232.825696 158.697395l640.445394 0-92.027973 92.021833c-4.979408 4.981455-7.18054 11.680017-6.624884 18.186198-0.555655 6.506181 1.645476 13.202697 6.624884 18.182105l92.024903 92.021833-640.446417 0L122.621758 268.905426zM787.970332 731.766262 147.529031 731.766262l92.018763-92.021833c4.981455-4.978385 7.18361-11.676947 6.627954-18.184151 0.556679-6.507204-1.6465-13.204743-6.627954-18.184151l-92.018763-92.021833L787.970332 511.354294l110.204961 110.205984L787.970332 731.766262z" p-id="1676" fill="#f4ea2a"></path></svg>