<?xml version="1.0" standalone="no"?><!DOCTYPE svg PUBLIC "-//W3C//DTD SVG 1.1//EN" "http://www.w3.org/Graphics/SVG/1.1/DTD/svg11.dtd"><svg t="1504712633382" class="icon" style="" viewBox="0 0 1024 1024" version="1.1" xmlns="http://www.w3.org/2000/svg" p-id="6566" xmlns:xlink="http://www.w3.org/1999/xlink" width="200" height="200"><defs><style type="text/css"></style></defs><path d="M60.15 308.92h903.7c32.318 0 58.604-29.02 58.604-64.696s-26.286-64.696-58.604-64.696H60.15c-32.307 0-58.594 29.02-58.594 64.696S27.843 308.92 60.15 308.92zM963.85 447.304H60.15c-32.307 0-58.594 29.02-58.594 64.696s26.287 64.696 58.594 64.696h903.7c32.318 0 58.604-29.03 58.604-64.696s-26.297-64.696-58.604-64.696zM963.85 715.07H60.15c-32.307 0-58.594 29.03-58.594 64.696s26.287 64.696 58.594 64.696h903.7c32.318 0 58.604-29.02 58.604-64.696s-26.297-64.697-58.604-64.697z" fill="#707070" p-id="6567"></path></svg>