<?xml version="1.0" standalone="no"?><!DOCTYPE svg PUBLIC "-//W3C//DTD SVG 1.1//EN" "http://www.w3.org/Graphics/SVG/1.1/DTD/svg11.dtd"><svg t="1504774956904" class="icon" style="" viewBox="0 0 1024 1024" version="1.1" xmlns="http://www.w3.org/2000/svg" p-id="7461" xmlns:xlink="http://www.w3.org/1999/xlink" width="200" height="200"><defs><style type="text/css"></style></defs><path d="M285.446659 63.785745 110.533954 63.785745c-12.619412 0-24.441669 4.975315-33.31885 13.991666-8.81783 8.976442-13.594623 20.878516-13.415544 33.497928 0 0 0.159636 11.006681 0.159636 15.047718 0 112.613824 21.954011 221.865063 65.243957 324.726779 41.837874 99.339496 101.707426 188.546214 177.958064 265.175475 76.250638 76.589352 165.04087 136.737244 263.920902 178.754197 102.384855 43.529399 211.118302 65.582671 323.215356 65.582671 6.667863 0 13.574157-0.100284 20.499893-0.278339 25.755594-0.676405 45.857421-21.336958 45.778626-47.051619-0.039909-14.450107-0.399089-174.196391-0.399089-174.196391-0.019443-31.746028-21.276582-59.950394-51.689243-68.588121l-143.943366-40.802288c-8.41874-2.388397-17.116843-3.582595-25.854854-3.582595-24.99937 0-48.603975 9.673313-66.497507 27.188222l-90.959641 89.207741c-127.423111-65.522296-232.553497-170.653705-298.494325-298.473859l88.252996-90.919732c23.685445-24.441669 32.661887-59.989279 23.426549-92.790336L353.735975 115.674533C345.137133 85.122703 317.053518 63.785745 285.446659 63.785745L285.446659 63.785745 285.446659 63.785745zM285.446659 63.785745" p-id="7462" fill="#f6ef37"></path><path d="M285.446659 63.785745 110.533954 63.785745c-12.619412 0-24.441669 4.975315-33.31885 13.991666-8.81783 8.976442-13.594623 20.878516-13.415544 33.497928 0 0 0.159636 11.006681 0.159636 15.047718 0 112.613824 21.954011 221.865063 65.243957 324.726779 41.837874 99.339496 101.707426 188.546214 177.958064 265.175475 76.250638 76.589352 165.04087 136.737244 263.920902 178.754197 102.384855 43.529399 211.118302 65.582671 323.215356 65.582671 6.667863 0 13.574157-0.100284 20.499893-0.278339 25.755594-0.676405 45.857421-21.336958 45.778626-47.051619-0.039909-14.450107-0.399089-174.196391-0.399089-174.196391-0.019443-31.746028-21.276582-59.950394-51.689243-68.588121l-143.943366-40.802288c-8.41874-2.388397-17.116843-3.582595-25.854854-3.582595-24.99937 0-48.603975 9.673313-66.497507 27.188222l-90.959641 89.207741c-127.423111-65.522296-232.553497-170.653705-298.494325-298.473859l88.252996-90.919732c23.685445-24.441669 32.661887-59.989279 23.426549-92.790336L353.735975 115.674533C345.137133 85.122703 317.053518 63.785745 285.446659 63.785745L285.446659 63.785745 285.446659 63.785745zM285.446659 63.785745" p-id="7463" fill="#f6ef37"></path></svg>