<?xml version="1.0" standalone="no"?><!DOCTYPE svg PUBLIC "-//W3C//DTD SVG 1.1//EN" "http://www.w3.org/Graphics/SVG/1.1/DTD/svg11.dtd"><svg t="1504775166792" class="icon" style="" viewBox="0 0 1024 1024" version="1.1" xmlns="http://www.w3.org/2000/svg" p-id="17619" xmlns:xlink="http://www.w3.org/1999/xlink" width="200" height="200"><defs><style type="text/css"></style></defs><path d="M743.739968 957.74604l-0.01842 0-4.600785-0.102331c-107.021455-5.475711-251.558339-106.206904-386.667503-269.468245l-49.90255-60.279898C167.437453 464.623993 96.65434 305.161165 113.206318 201.328331c11.685133-73.253374 120.593566-135.074372 182.822862-135.074372 30.653137 0 41.759079 15.253402 45.638433 24.360827 35.228339 62.608943 78.821183 171.484629 79.020728 210.529901l0.01535 2.78237-0.9967 2.595105c-7.769964 20.525476-25.15389 30.356378-40.494273 39.031968-20.204158 11.417027-31.688723 18.914792-33.088606 40.499389-0.418532 6.5553 5.232165 36.351929 94.370321 146.233526l38.1069 46.013987c89.38682 105.485473 117.511367 116.844172 124.095319 117.783567 21.549805 2.995217 31.702026-6.452969 47.205115-23.447015 11.800767-12.939707 25.186635-27.624151 47.281863-30.861892l2.795673-0.399089 2.752694 0.588401c38.924521 8.207939 138.559752 72.41631 195.125049 120.093169 8.162914 5.41636 22.416546 21.51092 11.129478 57.059554C891.282303 874.942149 814.104549 957.74604 743.739968 957.74604L743.739968 957.74604 743.739968 957.74604zM743.739968 957.74604" p-id="17620" fill="#f6ef37"></path></svg>